<?xml version="1.0" standalone="no"?>
<!DOCTYPE svg PUBLIC "-//W3C//DTD SVG 20010904//EN"
 "http://www.w3.org/TR/2001/REC-SVG-20010904/DTD/svg10.dtd">
<svg version="1.0" xmlns="http://www.w3.org/2000/svg"
 width="1024.000000pt" height="1024.000000pt" viewBox="0 0 1024.000000 1024.000000"
 preserveAspectRatio="xMidYMid meet">

<g transform="translate(0.000000,1024.000000) scale(0.100000,-0.100000)"
fill="#000000" stroke="none">
<path d="M4804 9105 c-352 -32 -680 -137 -1022 -326 -364 -202 -665 -501 -896
-889 -173 -290 -285 -610 -332 -951 -22 -153 -24 -527 -5 -673 29 -222 121
-525 219 -721 133 -267 279 -473 472 -665 174 -173 323 -286 563 -423 300
-171 481 -236 837 -302 493 -92 1089 4 1585 252 135 68 387 245 522 366 165
148 419 477 538 698 134 250 210 498 245 806 59 517 -20 1010 -230 1438 -283
576 -759 1011 -1350 1233 -259 97 -455 141 -729 162 -164 12 -234 11 -417 -5z
m432 -150 c206 -20 303 -37 444 -79 271 -81 447 -161 660 -301 298 -196 479
-375 667 -657 115 -174 273 -503 273 -570 0 -17 -17 -18 -289 -18 -272 0 -290
-1 -313 -20 -39 -30 -41 -56 -8 -93 l28 -32 318 -5 318 -5 16 -77 17 -78 -532
0 c-494 0 -533 -1 -547 -17 -31 -35 -31 -60 1 -95 l29 -33 534 -6 c293 -4 534
-7 536 -8 1 -1 2 -37 2 -81 l0 -80 -512 0 c-282 0 -523 -3 -535 -6 -29 -8 -47
-53 -34 -87 20 -52 18 -52 571 -57 l515 -5 -1 -73 c-1 -40 -3 -75 -5 -77 -9
-8 -289 -14 -640 -15 -300 0 -379 -3 -394 -14 -26 -19 -24 -71 3 -99 22 -21
27 -22 515 -28 270 -4 494 -8 497 -8 3 -1 -1 -37 -9 -81 l-15 -80 -467 0
c-457 0 -467 0 -493 -21 -31 -25 -33 -57 -5 -93 l20 -26 193 0 c106 0 309 -3
450 -7 l258 -6 -5 -26 c-3 -15 -15 -51 -26 -81 l-21 -55 -425 3 -425 4 -14
-33 c-16 -38 -12 -60 17 -87 21 -19 42 -20 387 -26 201 -3 373 -6 383 -6 25 0
21 -17 -23 -92 l-41 -68 -354 0 -354 0 -15 -22 c-22 -31 -20 -52 8 -85 l24
-28 294 -5 c253 -4 293 -7 290 -20 -2 -8 -24 -45 -50 -82 l-46 -68 -252 0
c-250 0 -253 0 -268 -22 -22 -31 -20 -52 8 -85 l24 -28 171 -4 c94 -1 171 -7
171 -11 0 -7 -125 -122 -174 -160 -13 -11 -44 -15 -103 -15 -64 0 -86 -4 -93
-15 -15 -24 -12 -48 10 -70 20 -20 20 -20 -28 -54 -87 -64 -196 -125 -311
-176 -63 -27 -117 -47 -120 -44 -3 3 -7 61 -9 130 l-4 123 154 3 153 3 -3 530
c-2 292 -8 604 -13 695 -13 236 -66 711 -89 804 -27 107 -81 213 -143 281 -63
67 -241 176 -339 206 l-67 21 -77 128 c-148 248 -135 241 -500 260 -205 10
-296 2 -358 -33 -52 -28 -137 -139 -201 -261 l-50 -95 -65 -20 c-157 -49 -323
-176 -387 -297 -64 -120 -88 -242 -138 -694 -41 -365 -44 -439 -47 -1010 -1
-313 -4 -570 -6 -570 -13 0 -119 72 -207 141 -115 89 -260 234 -365 364 -384
474 -559 1104 -480 1726 55 432 202 799 460 1144 122 163 206 253 345 373 151
129 289 219 490 318 290 142 539 208 890 237 98 8 203 6 351 -8z m-536 -1542
c0 -109 43 -378 90 -563 110 -435 120 -484 109 -525 -19 -75 -41 -126 -53
-122 -11 3 -315 430 -338 475 -11 22 -7 28 53 85 35 34 86 79 112 100 41 33
47 43 47 75 0 52 -21 77 -83 100 -68 27 -147 62 -147 67 0 16 94 200 122 240
20 28 43 65 52 83 23 45 36 40 36 -15z m600 24 c0 -8 31 -64 69 -125 80 -127
111 -185 111 -206 0 -18 -48 -40 -129 -62 -74 -19 -101 -46 -101 -99 0 -40 5
-47 105 -145 58 -58 105 -108 105 -113 0 -4 -19 -33 -42 -64 -24 -31 -72 -96
-108 -144 -86 -116 -252 -320 -317 -389 l-52 -55 25 65 c80 207 152 461 208
745 63 312 106 550 106 578 0 15 5 27 10 27 6 0 10 -6 10 -13z m447 -397 c33
-22 88 -69 121 -104 90 -97 115 -177 151 -483 56 -473 71 -737 71 -1260 l0
-343 -80 0 -80 0 -2 403 c-2 221 -3 533 -3 692 l0 290 -61 -1 c-109 -1 -98 74
-90 -644 4 -346 4 -759 0 -919 l-7 -290 -76 -20 c-255 -68 -578 -103 -792 -85
l-74 7 1 676 0 676 22 45 c28 56 65 104 167 217 146 162 329 383 420 508 50
68 109 149 133 179 24 31 52 72 63 90 18 32 19 37 5 63 -15 30 -73 88 -138
137 -21 16 -38 34 -38 41 0 13 106 49 178 60 23 4 42 10 42 13 -1 4 -5 26 -9
50 -10 53 -3 53 76 2z m-1425 -7 c3 -34 6 -38 38 -44 47 -8 141 -37 160 -49
12 -7 -7 -30 -93 -112 -59 -57 -107 -111 -107 -120 0 -9 34 -65 75 -125 41
-59 100 -146 132 -193 99 -147 214 -304 251 -342 41 -43 42 -35 -23 -191 -20
-48 -47 -131 -61 -183 l-24 -97 0 -638 c0 -453 -3 -639 -11 -639 -19 0 -390
99 -407 109 -14 8 -16 37 -13 274 1 146 -1 556 -5 911 l-7 646 -67 0 -67 0 -7
-32 c-4 -18 -6 -330 -6 -693 l1 -660 -88 -3 -88 -3 6 488 c5 349 11 532 23
643 9 85 28 261 42 390 27 256 61 435 92 496 27 52 103 124 176 168 33 20 63
36 67 36 4 0 9 -17 11 -37z m-242 -2430 c0 -129 -4 -135 -72 -99 -143 77 -157
92 -144 161 l7 35 104 0 105 0 0 -97z"/>
<path d="M5817 8586 c-80 -30 -137 -90 -185 -196 -34 -76 -56 -90 -138 -90
-90 0 -166 -53 -214 -149 -19 -39 -22 -56 -18 -130 6 -116 48 -200 119 -237
59 -30 126 -34 593 -35 l475 0 55 26 c97 46 156 143 155 255 -1 76 -12 112
-55 172 -41 58 -114 97 -190 100 l-58 3 -41 72 c-53 94 -113 155 -189 189 -52
24 -76 29 -166 31 -72 2 -117 -1 -143 -11z m231 -151 c76 -33 128 -108 152
-224 l15 -76 35 1 c19 1 63 5 97 9 54 7 66 5 98 -15 70 -43 80 -134 20 -190
l-26 -24 -478 -4 -478 -4 -22 23 c-46 48 -53 106 -21 168 33 66 142 98 230 67
25 -8 49 -11 53 -7 5 5 15 40 22 79 20 104 57 165 120 200 30 17 140 14 183
-3z"/>
<path d="M5692 7610 c-68 -102 -78 -165 -33 -211 33 -32 56 -36 105 -15 43 18
66 51 66 96 0 38 -35 117 -74 163 l-23 29 -41 -62z"/>
<path d="M6379 7618 c-68 -93 -77 -158 -28 -207 32 -33 65 -39 102 -20 79 41
88 94 29 185 -59 91 -65 93 -103 42z"/>
<path d="M6067 7630 c-32 -25 -77 -115 -77 -152 0 -56 49 -118 93 -118 11 0
37 17 58 39 29 28 39 47 39 70 0 30 -60 164 -79 175 -5 3 -20 -3 -34 -14z"/>
<path d="M5163 5670 c-71 -43 -77 -95 -18 -155 59 -59 133 -51 175 18 63 102
-51 202 -157 137z"/>
<path d="M5563 5463 l-43 -4 0 -182 c0 -213 14 -387 35 -428 16 -31 45 -43 91
-37 l29 3 -5 130 c-3 72 -5 216 -5 320 0 115 -4 193 -10 197 -5 4 -19 7 -30 6
-11 -1 -39 -3 -62 -5z"/>
<path d="M5164 5080 c-66 -42 -66 -116 0 -163 72 -51 166 -7 166 78 0 46 -23
75 -73 94 -40 15 -58 14 -93 -9z"/>
<path d="M4400 5461 c-33 -9 -37 -33 -39 -229 0 -91 -8 -212 -17 -273 -15
-104 -15 -111 1 -130 23 -25 65 -24 97 1 35 27 47 82 53 251 3 79 7 191 10
249 3 58 1 110 -3 117 -9 15 -70 24 -102 14z"/>
<path d="M7335 8410 c-16 -7 -11 -9 21 -9 26 -1 51 -9 68 -22 32 -25 35 -11 3
19 -24 23 -57 27 -92 12z"/>
<path d="M7350 8300 c0 -13 5 -18 15 -14 12 5 13 10 4 20 -15 19 -19 18 -19
-6z"/>
<path d="M5315 3790 c-138 -21 -215 -97 -215 -212 0 -116 69 -188 227 -238 52
-16 101 -35 109 -41 40 -33 -8 -109 -69 -109 -58 0 -134 28 -160 59 l-24 29
-52 -58 c-28 -32 -51 -63 -51 -69 0 -34 148 -107 236 -116 93 -10 153 7 216
63 85 77 108 161 69 249 -25 55 -99 103 -211 138 -126 39 -155 75 -106 131 19
23 31 28 72 28 44 0 81 -13 177 -62 4 -2 7 3 7 11 0 8 20 37 45 65 l45 49 -78
36 c-42 19 -95 38 -117 42 -22 4 -47 8 -55 10 -8 1 -37 -1 -65 -5z"/>
<path d="M1781 3771 c-107 -38 -155 -102 -155 -206 1 -114 62 -182 200 -225
104 -32 133 -47 144 -76 19 -50 -19 -84 -93 -84 -54 0 -105 20 -150 60 l-34
29 -10 -22 c-6 -12 -27 -42 -47 -66 l-37 -44 28 -23 c15 -13 53 -35 83 -51 50
-26 64 -28 165 -28 103 0 113 2 158 28 91 54 136 164 103 252 -28 72 -87 118
-206 156 -93 31 -150 64 -150 87 0 5 10 24 23 43 18 28 30 35 62 37 52 5 107
-12 145 -45 17 -14 32 -24 34 -22 1 2 13 20 26 39 13 19 34 47 48 62 l24 26
-23 16 c-109 70 -239 93 -338 57z"/>
<path d="M2370 3413 l0 -373 86 0 86 0 -4 135 -3 135 35 10 c44 12 50 12 50 0
0 -5 36 -60 81 -122 44 -61 86 -123 94 -137 13 -26 15 -26 109 -23 53 2 96 7
96 12 0 15 -86 136 -187 263 -57 71 -103 132 -103 137 0 4 6 10 14 13 8 3 23
24 33 46 10 23 65 91 122 151 57 61 102 113 99 115 -2 2 -45 5 -96 6 l-94 2
-18 -30 c-10 -17 -49 -67 -87 -111 -37 -44 -83 -99 -101 -121 -18 -23 -38 -38
-44 -35 -7 4 -8 55 -3 154 l7 147 -86 -1 -86 -1 0 -372z"/>
<path d="M3070 3784 c0 -10 66 -117 140 -229 36 -55 83 -128 103 -161 l37 -62
0 -145 0 -145 81 -4 c45 -2 83 1 86 5 2 4 3 75 2 156 -3 147 -3 149 24 189 15
23 27 45 27 48 0 13 125 209 173 272 34 45 44 64 34 68 -7 2 -51 4 -97 2 l-84
-3 -29 -50 c-16 -27 -52 -92 -79 -143 l-50 -92 -84 140 c-46 78 -84 145 -84
150 0 6 -42 10 -100 10 -55 0 -100 -3 -100 -6z"/>
<path d="M4320 3775 c-103 -47 -141 -156 -86 -251 l23 -41 -44 -27 c-159 -101
-170 -262 -25 -373 54 -41 98 -53 192 -53 65 0 82 4 127 30 28 16 54 34 58 40
11 17 23 12 76 -35 l51 -46 27 18 c87 58 101 69 101 76 0 4 -36 31 -80 59
l-80 52 39 41 c45 46 81 110 81 142 0 23 -27 35 -116 49 l-42 6 -7 -43 c-9
-55 -31 -109 -44 -109 -5 0 -20 17 -32 38 -13 20 -35 47 -48 60 l-25 23 66 62
c83 78 100 122 74 192 -11 27 -32 56 -54 73 -31 23 -46 27 -116 30 -57 1 -91
-2 -116 -13z m138 -121 c13 -9 22 -26 22 -42 0 -32 -43 -82 -70 -82 -22 0 -70
54 -70 81 0 49 72 76 118 43z m-40 -365 c34 -36 62 -70 62 -76 0 -6 -16 -18
-36 -28 -54 -25 -126 -16 -164 20 -43 41 -40 75 13 136 37 44 43 47 52 32 6
-10 38 -47 73 -84z"/>
<path d="M5790 3709 l0 -82 100 6 100 5 0 -299 0 -299 80 0 80 0 0 300 0 300
104 -7 103 -6 5 74 c3 41 4 77 1 82 -2 4 -132 7 -289 7 l-284 0 0 -81z"/>
<path d="M6480 3778 c0 -7 17 -37 39 -68 21 -30 80 -125 132 -210 l94 -155 -3
-155 -2 -155 79 0 79 0 6 65 c3 36 3 101 0 145 -6 78 -6 82 30 153 20 40 40
71 45 68 4 -3 16 11 25 32 10 20 30 52 46 72 15 19 39 58 53 85 14 28 39 63
56 79 52 50 44 57 -66 54 l-96 -3 -21 -36 c-12 -20 -50 -87 -85 -148 l-63
-112 -28 58 c-15 32 -50 93 -78 137 -29 43 -52 85 -52 92 0 11 -21 14 -95 14
-68 0 -95 -3 -95 -12z"/>
<path d="M7382 3416 l3 -374 233 1 232 0 0 78 0 79 -152 0 -153 0 3 295 4 295
-86 0 -86 0 2 -374z"/>
<path d="M8044 3414 l1 -373 247 2 248 2 0 78 0 77 -170 0 -170 0 0 70 0 70
150 0 150 0 0 75 0 75 -150 0 -150 0 0 70 0 70 170 0 170 0 0 78 0 77 -249 1
-249 1 2 -373z"/>
<path d="M6244 2540 c-42 -17 -54 -48 -54 -143 0 -84 2 -90 28 -117 46 -46
182 -51 182 -6 0 38 -12 46 -66 46 -47 0 -54 2 -54 20 0 15 7 20 28 20 51 0
72 11 72 36 0 22 -4 24 -50 24 -43 0 -50 3 -50 19 0 17 8 20 53 23 48 3 52 5
55 30 2 18 -4 31 -20 42 -24 17 -89 20 -124 6z"/>
<path d="M3683 2525 c-29 -21 -40 -78 -20 -108 8 -13 33 -31 56 -42 23 -10 41
-24 41 -32 0 -20 -29 -28 -51 -15 -10 7 -28 12 -39 12 -16 0 -20 -7 -20 -30 0
-41 49 -73 100 -66 45 7 100 64 100 105 0 37 -33 79 -71 88 -44 12 -39 28 9
31 52 4 66 26 33 54 -29 23 -108 24 -138 3z"/>
<path d="M4030 2525 c-10 -13 -8 -30 13 -93 14 -42 29 -93 32 -112 10 -48 22
-60 61 -60 41 0 59 24 74 100 6 30 21 77 33 104 21 48 21 48 2 62 -35 26 -59
14 -76 -39 -18 -53 -25 -51 -52 16 -13 31 -21 37 -45 37 -16 0 -35 -7 -42 -15z"/>
<path d="M5813 2525 l-33 -14 0 -103 c0 -122 11 -153 55 -153 30 0 30 1 28 50
-3 54 2 52 39 -14 19 -35 57 -42 78 -15 12 13 19 79 23 192 1 41 -21 63 -64
65 -30 2 -34 -1 -33 -23 1 -14 5 -40 9 -57 7 -29 5 -33 -13 -33 -25 0 -34 23
-26 67 5 25 3 38 -7 44 -18 11 -18 11 -56 -6z"/>
<path d="M4472 2518 c-7 -7 -12 -32 -12 -57 1 -59 16 -181 24 -189 4 -3 44 -5
89 -3 114 4 117 7 117 137 0 57 -4 105 -9 108 -19 12 -198 15 -209 4z"/>
<path d="M5457 2512 c-65 -44 -73 -104 -26 -199 21 -42 28 -48 59 -51 28 -2
42 3 67 28 54 53 56 144 5 200 -35 38 -69 45 -105 22z"/>
<path d="M5007 2470 c-39 -34 -51 -75 -36 -119 24 -69 118 -86 170 -30 52 56
34 135 -37 165 -47 20 -59 18 -97 -16z"/>
<path d="M6787 2476 c-120 -24 -158 -47 -138 -84 8 -14 28 -24 68 -32 32 -6
88 -18 125 -26 79 -19 120 -12 148 23 24 31 25 45 4 84 -13 27 -68 61 -91 58
-4 0 -56 -11 -116 -23z"/>
<path d="M3070 2474 c-30 -13 -60 -48 -60 -72 0 -13 13 -37 31 -54 29 -29 33
-30 97 -26 114 9 239 75 205 109 -25 25 -235 58 -273 43z"/>
</g>
</svg>
